<?xml version="1.0" encoding="utf-8"?>
<!-- Generator: Adobe Illustrator 21.0.0, SVG Export Plug-In . SVG Version: 6.00 Build 0)  -->
<svg version="1.1" id="Layer_1" xmlns="http://www.w3.org/2000/svg" xmlns:xlink="http://www.w3.org/1999/xlink" x="0px" y="0px"
	 viewBox="0 0 48 48" style="enable-background:new 0 0 48 48;" xml:space="preserve">
<style type="text/css">
	.st0{clip-path:url(#SVGID_2_);}
	.st1{clip-path:url(#SVGID_4_);}
	.st2{clip-path:url(#SVGID_6_);}
	.st3{clip-path:url(#SVGID_8_);}
</style>
<g>
	<defs>
		<path id="SVGID_1_" d="M47.5,19.6H25.1v9.3H38c-1.2,5.9-6.2,9.3-12.9,9.3c-7.9,0-14.2-6.3-14.2-14.2S17.2,9.8,25.1,9.8
			c3.4,0,6.4,1.2,8.8,3.2l7-7c-4.3-3.7-9.7-6-15.8-6c-13.3,0-24,10.7-24,24s10.7,24,24,24c12,0,22.9-8.7,22.9-24
			C48,22.6,47.8,21.1,47.5,19.6z"/>
	</defs>
	<use xlink:href="#SVGID_1_"  style="overflow:visible;"/>
	<clipPath id="SVGID_2_">
		<use xlink:href="#SVGID_1_"  style="overflow:visible;"/>
	</clipPath>
	<path class="st0" d="M-1.1,38.2V9.8L17.5,24L-1.1,38.2z"/>
</g>
<g>
	<defs>
		<path id="SVGID_3_" d="M47.5,19.6H25.1v9.3H38c-1.2,5.9-6.2,9.3-12.9,9.3c-7.9,0-14.2-6.3-14.2-14.2S17.2,9.8,25.1,9.8
			c3.4,0,6.4,1.2,8.8,3.2l7-7c-4.3-3.7-9.7-6-15.8-6c-13.3,0-24,10.7-24,24s10.7,24,24,24c12,0,22.9-8.7,22.9-24
			C48,22.6,47.8,21.1,47.5,19.6z"/>
	</defs>
	<use xlink:href="#SVGID_3_"  style="overflow:visible;"/>
	<clipPath id="SVGID_4_">
		<use xlink:href="#SVGID_3_"  style="overflow:visible;"/>
	</clipPath>
	<path class="st1" d="M-1.1,9.8L17.5,24l7.6-6.7l26.2-4.3V-2.2H-1.1V9.8z"/>
</g>
<g>
	<defs>
		<path id="SVGID_5_" d="M47.5,19.6H25.1v9.3H38c-1.2,5.9-6.2,9.3-12.9,9.3c-7.9,0-14.2-6.3-14.2-14.2S17.2,9.8,25.1,9.8
			c3.4,0,6.4,1.2,8.8,3.2l7-7c-4.3-3.7-9.7-6-15.8-6c-13.3,0-24,10.7-24,24s10.7,24,24,24c12,0,22.9-8.7,22.9-24
			C48,22.6,47.8,21.1,47.5,19.6z"/>
	</defs>
	<use xlink:href="#SVGID_5_"  style="overflow:visible;"/>
	<clipPath id="SVGID_6_">
		<use xlink:href="#SVGID_5_"  style="overflow:visible;"/>
	</clipPath>
	<path class="st2" d="M-1.1,38.2l32.7-25.1l8.6,1.1l11-16.4v52.4H-1.1V38.2z"/>
</g>
<g>
	<defs>
		<path id="SVGID_7_" d="M46.5,19.6H24.1v9.3H37c-1.2,5.9-6.2,9.3-12.9,9.3c-7.9,0-14.2-6.3-14.2-14.2S16.2,9.8,24.1,9.8
			c3.4,0,6.4,1.2,8.8,3.2l7-7c-4.3-3.7-9.7-6-15.8-6c-13.3,0-24,10.7-24,24s10.7,24,24,24c12,0,22.9-8.7,22.9-24
			C47,22.6,46.8,21.1,46.5,19.6z"/>
	</defs>
	<use xlink:href="#SVGID_7_"  style="overflow:visible;"/>
	<clipPath id="SVGID_8_">
		<use xlink:href="#SVGID_7_"  style="overflow:visible;"/>
	</clipPath>
	<path class="st3" d="M50.3,50.2L16.5,24l-4.4-3.3L50.3,9.8V50.2z"/>
</g>
</svg>
