<?xml version="1.0" encoding="utf-8"?>
<!-- Svg Vector Icons : http://www.onlinewebfonts.com/icon -->
<!DOCTYPE svg PUBLIC "-//W3C//DTD SVG 1.1//EN" "http://www.w3.org/Graphics/SVG/1.1/DTD/svg11.dtd">
<svg version="1.1" xmlns="http://www.w3.org/2000/svg" xmlns:xlink="http://www.w3.org/1999/xlink" x="0px" y="0px" viewBox="0 0 1000 1000" enable-background="new 0 0 1000 1000" xml:space="preserve">
<metadata> Svg Vector Icons : http://www.onlinewebfonts.com/icon </metadata>
<g><g transform="translate(0.000000,512.000000) scale(0.100000,-0.100000)"><path d="M5890.4,5009.3c-505.6-70.9-1218.1-436.7-1884.6-971c-316-250.9-898.2-835-1158.7-1160.6C1841.6,1619.4,1337.9,232.8,1435.6-1012C1581.2-2852.5,2556-4210.4,4038.4-4637.5c1177.8-339,2478.3-63.2,3395.7,722.1C8073.7-3367.7,8497-2548,8571.7-1714.9c28.7,329.4-76.6,777.6-262.4,1103.1C8104.3-253.6,7822.8,73.9,7232.9,642.7c-371.5,358.2-375.4,362-471.1,555.4c-170.4,344.7-231.7,710.5-191.5,1154.9c19.1,218.3,70.9,528.6,124.5,741.2c13.4,49.8,11.5,51.7-61.3,51.7c-185.8,0-463.5-111.1-729.7-293c-86.2-61.3-160.9-109.2-164.7-109.2c-5.7,0-19.2,61.3-30.6,137.9c-34.5,197.3-13.4,704.8,36.4,919.3c65.1,283.4,168.6,566.9,327.5,894.4c84.3,172.4,153.2,316,153.2,319.8C6225.5,5024.7,5967,5018.9,5890.4,5009.3z M5373.3,1083.2c-120.6-293-185.8-586-185.8-848.4c1.9-323.7,91.9-576.5,304.5-842.7c137.9-174.3,283.5-302.6,685.6-612.9c520.9-400.3,685.6-566.9,812.1-823.5c86.2-170.4,107.2-277.7,105.3-507.5c-5.8-697.1-434.8-1338.7-1105.1-1656.6c-86.2-42.1-180-80.4-208.8-88.1l-51.7-11.5l55.5,103.4c109.2,199.2,139.8,452,86.2,681.8c-63.2,266.2-218.3,471.1-595.6,779.5C4927-2454.2,4837-2322,4838.9-2086.5l1.9,139.8l-113-111.1c-283.4-277.7-475-660.7-561.2-1128c-24.9-126.4-30.6-239.4-24.9-448.2c9.6-279.6,17.2-317.9,120.7-561.1c13.4-32.6,7.7-32.6-69,5.7c-137.9,70.9-249,153.2-398.4,294.9c-327.5,316-522.9,664.6-658.8,1179.8c-55.5,206.9-57.5,241.3-59.4,593.7c-1.9,323.7,3.8,400.3,42.1,572.7c122.6,543.9,381.1,1085.9,756.5,1581.9c162.8,212.6,488.4,543.9,691.4,702.9c300.7,233.6,526.7,339,804.4,377.3C5379,1113.8,5380.9,1100.4,5373.3,1083.2z"/></g></g>
</svg>