<svg id="Layer_1" data-name="Layer 1" xmlns="http://www.w3.org/2000/svg" viewBox="0 0 1599.43 1429.59"><defs><style>.cls-1{fill:#ff3f18;}</style></defs><title>reddit</title><path class="cls-1" d="M1285,2.5A145.6,145.6,0,0,1,1269.7,5c-1.6,0-6,1.4-9.9,3.1-11.9,5.2-24.4,14.6-39.3,29.4-11.9,11.9-26.3,23.4-35.1,28.1-5.5,2.9-9,3-22.4.4-36.2-7.1-38.7-7.6-71-14.5-32-6.8-38.4-8.2-67-14.5-5.2-1.1-12-2.5-15.1-3a79.42,79.42,0,0,1-9.5-1.9c-2.2-.6-7.7-1.7-12.4-2.5s-13.2-2.5-19-3.6c-32.2-6.3-65.5-12.3-85.8-15.5-4.3-.7-4.5-.6-9.2,4.4-13.4,13.8-24.6,48.9-39.5,123.6-1.5,7.1-3.7,18.2-5,24.5s-3.5,17.3-4.9,24.5-3.7,18.2-5,24.5c-2.3,11-4.4,21.2-10.1,49.5-1.4,7.1-3.6,18.2-5,24.5s-3.5,17.3-5,24.5-3.4,17.3-4.5,22.5-3.1,15.3-4.5,22.5-3.8,18.4-5.1,25-3.6,17.6-5,24.5-3.6,17.7-4.9,24-2.7,13.4-3,15.7c-.6,3.8-1,4.3-3.3,4.3-2.6.1-16.9.9-50.4,3-9.2.5-21.3,1.7-26.9,2.5s-14.5,2-19.8,2.5C635,460.9,556.7,479.2,518,493.2c-3,1.1-7.5,2.6-10,3.3s-8.3,2.8-13,4.5-10.3,3.9-12.5,4.6-6,2.3-8.5,3.3-8.1,3.4-12.5,5.1-9.8,4-12,5-12.8,5.7-23.5,10.5c-16.8,7.5-36.5,17.2-62,30.7-25.1,13.3-33.1,17.5-57,30l-5.4,2.8-4.1-3.8a59.7,59.7,0,0,0-6.5-5.5c-1.4-.9-5.6-3.8-9.4-6.5a181.24,181.24,0,0,0-27.1-16.1c-19.4-9.5-34.1-14.2-54-17.2a140.81,140.81,0,0,0-65.5,5.2c-5.2,1.7-10.5,3.7-11.7,4.5a8.7,8.7,0,0,1-3.2,1.4c-.8,0-8.3,4-18.1,9.5-7.9,4.6-26.5,19.1-36.6,28.7C57.7,600.5,43,616.9,38.6,623c-7.5,10.5-12.4,17.7-14.9,21.9C20.7,650,10,671.7,10,672.8c0,.3-1.1,3.6-2.4,7.2C1.6,696.3.5,703.8.5,728c0,20.4.2,23.4,2.4,32,4,15.9,10.1,31.5,16.9,43.5,1.9,3.3,4,6.9,4.6,8.1s7.1,7.9,14.4,15,25.3,24.8,39.9,39.2l26.4,26.4-.5,9.6c-3,51.6.2,88.8,11.1,130.2a387.87,387.87,0,0,0,36.7,89.5c5.7,9.8,13.1,21.5,19.8,31.1,1.5,2.1,3.6,5,4.5,6.4,3.2,4.5,21.6,27.4,25.7,32,7.1,7.8,41.8,42.3,48.6,48.1,11.3,9.9,31.6,25.9,43.5,34.6,4.6,3.3,16.5,11.6,19,13.3,1.2.8,4.9,3.3,8.1,5.5s6.7,4.4,7.6,5,5.9,3.7,11,6.9,10.7,6.7,12.3,7.6c41.4,24,76,41.3,112.5,56.5,3,1.2,7.8,3.2,10.5,4.4s7,2.8,9.5,3.7,8.8,3.1,14,5c23.3,8.4,40.9,13.9,68,21.3,33.3,9.1,96.4,20.7,122.5,22.6,4.4.3,14.1,1.2,21.5,2.1,17.8,2.1,105.9,3.1,128.1,1.5,67.8-4.9,130-13.8,182.4-26.1,43.7-10.2,67.7-16.9,89.5-24.7a77.46,77.46,0,0,1,7.5-2.3,75.15,75.15,0,0,0,8-2.6c3.8-1.4,10.2-3.7,14-5.1,12.2-4.4,24.1-9.1,36.5-14.3,23.2-9.8,27-11.5,46-20.8,12.3-6,38.1-19.9,47.2-25.5,2-1.2,6.2-3.8,9.4-5.7,8.4-5.1,23.1-14.9,29.4-19.5,1.5-1.1,4-2.9,5.6-4,6.4-4.4,24.5-18.8,35-27.8,24.5-21.1,52.4-51.5,68.4-74.3,20.3-29,34.7-54.9,46.3-82.9,5-12.1,6.9-17,7.4-19,.3-1.1,1.5-4.9,2.8-8.5,6.7-19,15.5-55.5,17.5-72.5.5-4.4,1.6-12.7,2.5-18.5,1.9-12.4,3.4-43.1,3.5-69l.1-18.5,12.7-6.1c18.7-9.1,28-15,41.6-26.7,19.1-16.3,30.8-33,39.9-56.7,5.6-14.7,7.1-23.9,7.5-47.1.4-21.6.1-24.6-3.9-44.4-1.7-8.8-14.5-48.4-19.1-59-22-51.8-52.9-82.2-96.3-94.7-13.6-3.9-25.1-5.3-45-5.3-23.2,0-47.7,2.8-64.5,7.3-4.9,1.3-22.8,9.9-26.7,12.8a15.1,15.1,0,0,1-3.9,2.4,15.19,15.19,0,0,0-4,2.5,15.35,15.35,0,0,1-3.9,2.5c-.5,0-22.8,15.8-28.9,20.6l-2.9,2.2-8.1-6.2c-7.8-5.9-12.1-9-15.5-11.1-.9-.6-4.1-2.8-7.1-5.1s-8.8-6.1-12.8-8.5-9.4-5.7-12-7.3c-20.5-12.5-51.5-27.8-83.2-41.1-11.3-4.7-31-12-51.5-18.9-12.1-4.2-52.2-15.8-62.5-18.1-3-.7-8.2-2-11.5-2.8-13-3.5-44.4-10.2-65.5-14.1-39.8-7.3-101.1-16.2-119.7-17.3-10.9-.7-10.4.4-6.9-14.6,4.2-18,7.6-33.3,20.3-91.7,1.4-6.3,3.3-15.1,4.3-19.5s3-13.4,4.5-20,3.6-16.7,4.9-22.5,3.6-16.1,5.1-23,3.7-17,5-22.5,3.5-15.6,5-22.5,3.8-17,5-22.5,3.6-15.4,5-22c2.6-11.5,4.3-19,9.9-43,6-26,9-38.1,9.7-38.9.4-.5,4.6.1,9.6,1.2,4.8,1.2,10.4,2.4,12.3,2.7s7.6,1.5,12.5,2.5,14.9,3.1,22,4.6,18.4,3.6,25,5,17.4,3.5,24,4.9,17.6,3.6,24.5,5l25,5.1c6.9,1.4,17.7,3.6,24,4.9s17.4,3.5,24.5,5,18.2,3.7,24.5,5,13.4,2.7,15.7,3a18.27,18.27,0,0,1,5.6,1.8c.8.7,2.2,5.4,3.2,10.7,8.3,45.3,28.5,79.5,57,96.6,8.9,5.3,11.4,6.5,20.3,9.5,12,4.1,25.5,5.9,43.4,5.9,25.8-.1,50.1-3.8,65.3-10.1,8.2-3.4,19.5-9.2,20.7-10.6a3.64,3.64,0,0,1,2.3-1.3c2.8,0,20-18.4,24.8-26.5,12.4-21.4,15.8-41.4,13.9-83-1.1-25.5-1.3-26.5-8.4-48-3.1-9.4-3.9-11.1-11.9-26.5a63.31,63.31,0,0,0-4.9-7.5c-1.6-2.2-3.7-5.1-4.7-6.5-4.2-6.1-23.3-23-25.9-23a11,11,0,0,1-3.2-1.9c-4-2.7-14.4-6.8-25.2-9.8-8.1-2.2-11.9-2.7-25.5-2.9S1295.7.4,1285,2.5Zm-731.5,729c38.7,5.5,67.8,24.7,83,54.6,4.3,8.6,8.5,18.3,8.5,20a52.46,52.46,0,0,0,1.9,7.5c2.4,7.6,5,27,5.8,43,1.3,27-5.4,50.5-19,66.9a101.39,101.39,0,0,1-7.6,8c-1.9,1.6-4.1,3.6-4.9,4.4-4.3,4.3-20.5,13.8-30.4,17.7-9.7,3.9-26,8.8-39.8,12-11.8,2.7-13.8,2.9-35.5,2.9-22.6,0-23.2,0-32-2.9-24-7.6-39.5-19.2-53.9-40.1-12.9-18.7-21.2-40.7-27.8-73.5-3.3-16.9-3.2-35.7.4-50.1,5.5-21.9,15.8-36.7,33.8-48.6,13.3-8.8,25.1-13.6,44.7-18.2C506.8,729,528.6,727.9,553.5,731.5Zm543.1-.1a124.87,124.87,0,0,1,15.9,3.6,47.23,47.23,0,0,0,7,2c1.3,0,14,5.9,19,8.8,18.8,10.9,34.7,29.8,44.1,52.7,3.7,8.9,8.1,23.1,9.4,30.5.6,3.6,1.4,16.2,1.7,28,.5,17.9.3,23.4-1.2,32-2.8,16.8-7.7,28.3-17.2,40.1-14.5,18.1-36.9,30.3-74.3,40.6-8.4,2.3-11.4,2.6-26,2.7-16.7.1-20.9-.5-37-5.6-10.8-3.4-33.2-16.3-43.4-25-30.7-26.3-43.9-55.5-42.3-93.8.9-22.8,4.2-39.7,10.3-52.8a39.19,39.19,0,0,0,2.4-6.1c0-1.7,7.2-12.8,12.5-19.2a98.77,98.77,0,0,1,32-25.7c5.6-2.8,16.1-7.2,17.2-7.2a68.47,68.47,0,0,0,7.5-2C1052.1,729.3,1074.6,728.1,1096.6,731.4ZM535.7,1129.9c4.5,4.2,18.4,15.1,19.3,15.1a2.56,2.56,0,0,1,1.7,1.3c1.8,2.9,32.5,23.5,49,32.8a461.69,461.69,0,0,0,58.3,27.2c19.1,7.2,50.7,15.6,67,17.7,4.1.5,12.5,1.7,18.5,2.6,8.2,1.3,18.2,1.7,39,1.8,30.1.1,46.2-1.4,74.5-7,29.5-5.8,64-16.3,90-27.3,4.1-1.8,9.1-3.8,11-4.5,4.1-1.6,20.5-9.3,30.5-14.3,24.6-12.4,38.9-19.4,45.5-22.3,4.1-1.7,9.1-3.9,11-4.7,14-6.2,36.6-11.9,42.5-10.8,12.2,2.4,12.5,2.5,12.5,5.9a61.33,61.33,0,0,1-2,10.9c-3.4,12.8-8.8,21.4-21.6,34.3-4.7,4.6-10.2,9.6-12.2,10.9s-5.5,3.7-7.7,5.2c-11.6,8.2-41.4,23.2-58.5,29.5-3,1.1-8.4,3.1-12,4.4-54.9,20.5-113.7,32.5-169,34.4-70.2,2.5-126.7-5.6-195.5-28.2-20.7-6.8-42.8-16.4-58.5-25.4-3.6-2-7.4-4.2-8.5-4.8-1.8-1-14.7-9.6-21.5-14.3-6.4-4.4-21.4-17.6-25.6-22.4-6.5-7.6-11.4-18-11.4-24.4a18,18,0,0,1,8.3-15c8.7-5.4,17.4-9.4,22.8-10.4C533.4,1128,534.5,1128.9,535.7,1129.9Z" transform="translate(-0.5 -0.3)"/></svg>