<?xml version="1.0" encoding="utf-8"?>
<!-- Generator: Adobe Illustrator 23.1.0, SVG Export Plug-In . SVG Version: 6.00 Build 0)  -->
<svg version="1.1" id="Layer_1" xmlns="http://www.w3.org/2000/svg" xmlns:xlink="http://www.w3.org/1999/xlink" x="0px" y="0px"
	 viewBox="0 0 456.3 733.3" style="enable-background:new 0 0 456.3 733.3;" xml:space="preserve">
<style type="text/css">
	.st0{fill:#487CDC;}
</style>
<title>zAsset 3</title>
<g>
	<g id="Layer_1-2">
		<path class="st0" d="M283.2,516.7l-0.1-0.8c0,0.4,0.1,0.8,0.1,1.2C283.2,516.9,283.2,516.8,283.2,516.7z"/>
		<path class="st0" d="M453.4,468.2c-10.3-73.3-32.9-127.3-50.8-161.8c-13.7-26.5-42.2-81.6-98-134.8C250.5,120.1,207,104.7,186,46
			c-7.2-20.3-12-46.4-18.4-46c-6.8,0.5-10.3,30.9-11.2,49c-4,77.8,29.6,140.6,33.7,148.1c14.3,26.1,22.1,31.4,42.9,71.5
			c1.5,3,3,5.8,4.3,8.5c15,30.3,17.5,43.5,16.4,56.8c-0.6,6.9-3.5,41.4-31.9,55.1c-17.8,8.6-40.3,6.7-56.2-5.1
			c-19.3-14.3-21.5-37.5-22.5-48c-1-10.2,0.8-13.6,5.1-38.8c0.4-2.2,0.7-4.2,1.1-6.3c6-17.9,8.2-36.9,6.3-55.8
			c-2.5-25.4-11.7-42.6-19.8-58.1c-5.1-9.6-19.4-36.9-27.7-34.6c-7.2,2-6.3,26.1-6.1,32.2c0.6,32.1-12.2,92.5-71.8,216.9
			C10.4,426.1-0.1,465.2,0,505.1c0,126,102.2,228.2,228.2,228.2s228.2-102.2,228.2-228.2C456.3,492.7,455.3,480.4,453.4,468.2z
			 M180.4,640.8c-8.9,0-16.1-7.2-16.2-16.1c0-2.8,0.7-5.6,2.2-8.1l23.9-41.4c1.3-2.2,1.9-4.6,1.9-7.1c0-3.7-1.4-7.3-4-10
			c-0.3-0.3-0.6-0.7-0.9-1s-0.5-0.6-0.8-0.9l-0.9-1c-0.8-1-1.6-2-2.3-3c-0.5-0.7-1-1.4-1.4-2.1l-0.7-1.1l-0.7-1.1
			c-0.2-0.4-0.4-0.8-0.6-1.1l-0.6-1.1c-0.4-0.8-0.8-1.5-1.1-2.3c-0.2-0.4-0.4-0.8-0.5-1.2s-0.4-0.8-0.5-1.2
			c-0.3-0.8-0.6-1.6-0.9-2.4l-0.4-1.2c-0.1-0.4-0.3-0.8-0.4-1.3s-0.3-0.8-0.4-1.3s-0.2-0.8-0.3-1.3s-0.2-0.9-0.3-1.3
			s-0.1-0.6-0.2-0.9c-0.1-0.6-0.2-1.2-0.3-1.8c-0.1-0.4-0.1-0.8-0.2-1.2s-0.1-0.9-0.2-1.3c-0.1-0.6-0.1-1.3-0.2-1.9
			c-0.1-0.4-0.1-0.9-0.1-1.3c0-0.1,0-0.2,0-0.2c0-0.4,0-0.8-0.1-1.3c0-0.7,0-1.3,0-2c0-6.5,1.1-12.9,3.4-19c0.3-0.7,0.5-1.4,0.8-2.1
			c1.6-3.8,3.6-7.4,6-10.8c0.4-0.6,0.8-1.1,1.2-1.7c1.5-1.9,3-3.7,4.7-5.4c0.6-0.6,1.3-1.2,1.9-1.8c0.6-0.6,1.3-1.2,2-1.7
			c10.5-8.7,24-13.2,37.6-12.6l0,0l1.3,0.1l1.1,0.1h0.2l1.2,0.1l0.9,0.1c0.3,0,0.7,0.1,1,0.1l0.8,0.1c0.8,0.1,1.6,0.3,2.4,0.5
			c0.4,0.1,0.8,0.2,1.2,0.3s0.8,0.2,1.2,0.3c1.1,0.3,2.2,0.6,3.3,1c13.9,4.6,25.4,14.6,32,27.7c1,2,1.9,4.1,2.6,6.2v0.1
			c0.1,0.4,0.3,0.8,0.4,1.1s0.3,0.8,0.4,1.2s0.2,0.8,0.4,1.2c0.4,1.2,0.6,2.5,0.9,3.7s0.5,2.7,0.7,4.1c0.1,0.5,0.1,1,0.2,1.5
			s0.1,0.8,0.1,1.3l0.1,0.8c0,0.1,0,0.3,0,0.4s0,0.3,0,0.4c0,0.4,0,0.8,0,1.2c0,1.2,0,2.3,0,3.4c0,0.5,0,0.9-0.1,1.3
			c0,0.1,0,0.1,0,0.2c0,0.5,0,0.9-0.1,1.4c-0.1,1.1-0.2,2.3-0.4,3.4c0,0.3-0.1,0.6-0.2,1s-0.1,0.8-0.2,1.1s-0.2,1-0.3,1.4
			c-0.2,1.2-0.5,2.3-0.9,3.4c-0.1,0.4-0.2,0.8-0.4,1.2c-0.2,0.7-0.4,1.3-0.6,2c-0.2,0.5-0.3,0.9-0.5,1.4s-0.4,1-0.6,1.5
			s-0.4,0.9-0.6,1.4c-0.7,1.4-1.4,2.8-2.1,4.2c-0.2,0.3-0.4,0.6-0.5,0.9c-0.4,0.8-0.9,1.5-1.4,2.2c-0.3,0.4-0.6,0.9-0.9,1.3
			s-0.4,0.6-0.6,0.9l-0.6,0.8c-0.6,0.8-1.1,1.5-1.7,2.2c-0.3,0.4-0.7,0.8-1,1.2c-0.5,0.6-1,1.1-1.5,1.7c-4.4,4.6-5.2,11.6-2,17.1
			l0,0l23.9,41.4c4.4,7.7,1.8,17.6-5.9,22c-2.5,1.4-5.3,2.2-8.1,2.2L180.4,640.8z"/>
		<path class="st0" d="M455,480.7c-0.5-4.2-1-8.4-1.6-12.5"/>
	</g>
</g>
</svg>
