<?xml version="1.0" standalone="no"?>
<!DOCTYPE svg PUBLIC "-//W3C//DTD SVG 20010904//EN"
 "http://www.w3.org/TR/2001/REC-SVG-20010904/DTD/svg10.dtd">
<svg version="1.0" xmlns="http://www.w3.org/2000/svg"
 width="250.000000pt" height="250.000000pt" viewBox="0 0 250.000000 250.000000"
 preserveAspectRatio="xMidYMid meet">
<metadata>
Created by potrace 1.15, written by Peter Selinger 2001-2017
</metadata>
<g transform="translate(0.000000,250.000000) scale(0.100000,-0.100000)"
fill="#000000" stroke="none">
<path d="M836 2474 c-23 -24 -26 -35 -26 -95 l0 -69 -259 0 c-252 0 -259 -1
-292 -23 -34 -22 -34 -24 -37 -105 l-3 -82 1041 0 1041 0 -3 82 c-3 81 -3 83
-37 105 -33 22 -40 23 -292 23 l-259 0 0 69 c0 58 -3 72 -25 95 l-24 26 -399
0 -399 0 -27 -26z"/>
<path d="M417 1913 c-4 -10 76 -839 92 -943 6 -41 27 -240 47 -442 40 -421 43
-431 135 -487 l49 -31 520 0 520 0 49 31 c92 56 95 66 135 487 20 202 41 401
47 442 16 104 96 933 92 943 -2 4 -382 7 -843 7 -461 0 -841 -3 -843 -7z m412
-242 c13 -13 21 -40 25 -83 22 -233 96 -1204 96 -1266 0 -55 -33 -92 -83 -92
-54 0 -79 27 -88 96 -16 120 -98 1295 -92 1312 13 37 36 52 80 52 29 0 49 -6
62 -19z m490 0 c11 -11 23 -35 26 -53 3 -18 5 -326 3 -685 l-3 -651 -24 -26
c-34 -36 -88 -36 -122 0 l-24 26 -3 651 c-2 359 0 667 3 685 9 48 37 72 85 72
26 0 47 -7 59 -19z m493 2 c8 -10 18 -26 21 -35 6 -17 -76 -1192 -92 -1312 -9
-69 -34 -96 -88 -96 -50 0 -83 37 -83 92 0 62 74 1033 96 1266 7 80 26 102 87
102 29 0 49 -6 59 -17z"/>
</g>
</svg>
