<?xml version="1.0" encoding="utf-8"?>
<!-- Generator: Adobe Illustrator 21.0.0, SVG Export Plug-In . SVG Version: 6.00 Build 0)  -->
<svg version="1.1" id="Layer_1" xmlns="http://www.w3.org/2000/svg" xmlns:xlink="http://www.w3.org/1999/xlink" x="0px" y="0px"
	 viewBox="0 0 512.6 512" style="enable-background:new 0 0 512.6 512;" xml:space="preserve">
<style type="text/css">
	.st0{fill:#FFFFFF;}
</style>
<path class="st0" d="M511.3,232.4H511c-1-10.1-9-18-19-19h-4.4h-7.4v-0.1c-12.5,0-23.4-7.3-28.7-17.8c-1.2-2.6-2.2-5.4-2.7-8.3
	c-2.4-6.6-5-13-8.1-19.3l0,0c-1.5-2.2-2.7-4.6-3.6-7.2l0,0c-1.2-3.4-1.8-6.9-1.8-10.6c0-8.8,3.6-16.8,9.4-22.6l0,0l0,0l6.5-6.5
	c0.1-0.1,0.1-0.1,0.2-0.2c0.1-0.1,0.1-0.1,0.2-0.2c7.6-7.8,7.9-20,1.2-28.3l0.1-0.1c-5-5.9-10.2-11.8-15.7-17.1
	c-5.6-5.6-11.4-11-17.6-16l-0.1,0.1c-7.5-6.2-18.2-6.4-26-0.7l-4.7,4.7l-4.4,4.4l-0.2-0.2c-9.3,9.4-22.9,11.8-34.5,7.1
	c-1.6-0.6-3-1.3-4.6-2.2c-7.4-3.6-15-6.7-22.7-9.4c-1.3-0.3-2.7-0.8-4-1.3l0,0c-3.8-1.5-7.4-3.9-10.5-6.9
	c-5.3-5.3-8.3-11.9-9.2-18.6c-0.3-2.7-0.3-5.4,0-8.1v-5.5c0-10.5-7.6-19.3-17.6-21c-1.2-0.1-2.5-0.2-3.7-0.3l0,0
	C270.7,0.3,263.6,0,256.3,0C249.2,0,242,0.3,235,0.9l0,0c-1.2,0.1-2.5,0.2-3.7,0.3c-10,1.8-17.6,10.5-17.6,20.9v9.5
	c0,13.8-8.6,25.4-20.8,30c-0.8,0.3-1.6,0.6-2.4,0.8c-8.5,2.9-16.8,6.3-24.7,10.3c-0.1,0-0.1,0-0.1,0c-0.7,0.3-1.2,0.7-1.9,1
	c-4,1.9-8.5,2.9-13.3,2.9c-8.8,0-16.8-3.6-22.6-9.4v0.1l-6.7-6.7c-7.4-7.4-18.9-8.3-27.2-2.5c-1,0.8-1.9,1.6-2.8,2.4L91,60.7
	c-5.5,4.6-10.7,9.4-15.7,14.4c-5,5-9.9,10.3-14.4,15.7l0,0c-0.8,1-1.7,1.9-2.5,2.9c-5.8,8.3-5,19.8,2.5,27.2l6.7,6.7
	c9.6,9.7,11.9,24.1,6.5,35.8c-0.3,0.8-0.7,1.5-1.1,2.1c-3.9,7.9-7.4,16.2-10.2,24.6c-0.2,0.9-0.6,1.8-0.9,2.7l0,0
	c-1.6,4-3.9,7.8-7.3,11.1c-6.3,6.3-14.4,9.4-22.6,9.4v0.1h-9.7c-10.5,0-19.3,7.6-21,17.6c-0.1,1.2-0.2,2.5-0.3,3.7l0,0
	C0.3,241.7,0,249.1,0,256.1l0,0v0.1v0.2l0,0c0,7.1,0.3,14.1,0.9,20.9l0,0c0.1,1.2,0.2,2.5,0.3,3.7c1.8,10,10.5,17.6,20.9,17.6l0,0
	h9.5l0,0c13.7,0,25.2,8.5,29.9,20.5l0,0c0.3,0.8,0.6,1.6,0.8,2.4c0,0,0,0.1,0.1,0.1c2.8,8.5,6.3,16.8,10.3,24.7l0.1,0.1
	c0.3,0.6,0.7,1.2,1,1.9c1.9,4,2.9,8.6,2.9,13.3c0,8.8-3.6,16.8-9.4,22.6l0,0l-6.5,6.5c-0.1,0.1-0.1,0.1-0.2,0.2
	c-0.1,0.1-0.1,0.1-0.2,0.2c-7.2,7.4-7.9,18.5-2.4,26.8c0.9,1.1,1.9,2.2,2.8,3.4c4.6,5.4,9.3,10.5,14.3,15.6l0,0
	c5,5,10.2,9.9,15.6,14.3c1.1,0.9,2.1,1.8,3.2,2.7c7.4,5,17.2,4.8,24.5-0.4l4.7-4.7l4.4-4.4l0.2,0.1c9.7-9.6,24.1-11.9,35.9-6.5
	c0.6,0.2,1.2,0.6,1.8,0.9c0,0,0.1,0,0.1,0.1c8.1,4,16.3,7.5,25,10.4c0.8,0.2,1.5,0.4,2.1,0.8c4.1,1.6,8.2,4,11.5,7.4
	c6.3,6.3,9.4,14.4,9.4,22.6h0.1v9.4c0,11,8.4,20.1,19.1,21.2v0.1c7.7,0.8,15.6,1.1,23.5,1.1c7.9,0,15.8-0.3,23.5-1.1v-0.1
	c10.7-1.1,19.1-10.2,19.1-21.2v-9.5c0-12.9,7.6-23.8,18.5-29c2.2-1,4.6-1.8,6.9-2.4c7.1-2.5,13.9-5.3,20.5-8.5c1.9-1.2,4-2.4,6.2-3
	c3.5-1.3,7.3-2,11.2-2c8.1,0,15.6,3,21.2,8.1c1,0.8,1.9,1.7,2.8,2.7l5.5,5.5l0,0c7.5,7.5,19.3,8.3,27.5,2.2c0,0,0.1,0,0.1-0.1
	c0.7-0.6,1.3-1.1,2-1.7c5.6-4.7,11-9.6,16.1-14.8c5.1-5.1,10.1-10.5,14.8-16.1l1.8-2.2c5.8-8.1,5.4-19.3-1.5-26.8l0,0l-1.6-1.5l0,0
	l-5.9-5.9l0,0c-9.5-9.5-11.8-23.6-6.7-35.3c0.4-1.1,1-2.1,1.6-3.2c3.8-7.7,7.1-15.7,9.9-23.8c0.3-1.1,0.7-2.1,1.1-3.2
	c1.6-4,3.9-7.7,7.2-11c6.3-6.3,14.4-9.4,22.6-9.4l0,0h9.2v-0.1c11.4,0,20.7-9,21.3-20.3h0.3c0.7-7.4,1-14.9,1-22.4
	C512.4,248.1,512,240.1,511.3,232.4L511.3,232.4z M387.2,256L387.2,256c0,14.9-2.5,29.2-7.1,42.6c-1.7,5-3.8,10.1-6.2,14.8
	c-6.4,13.1-14.9,25-25.1,35.3c-10.2,10.2-22.1,18.8-35.1,25.2c-4.8,2.4-9.9,4.5-15,6.3c-13.3,4.7-27.6,7.2-42.6,7.3h-0.3
	c-14.8,0-29-2.5-42.2-6.9c-5.4-1.8-10.5-3.9-15.4-6.4c-13-6.4-24.9-14.8-34.9-25c-10.3-10.2-18.8-22.1-25.2-35.1
	c-2.5-4.9-4.6-10.1-6.4-15.3c-4.6-13.3-7.1-27.5-7.1-42.3c0-14.8,2.5-29.7,7.1-43c1.8-5.3,3.9-10.4,6.4-15.3
	c6.4-13.1,15-25,25.2-35.1c10.3-10.2,22.2-18.7,35.3-25.1c4.9-2.4,10-4.5,15.2-6.3c13.2-4.5,27.4-6.9,42.2-6.9h0.3
	c15,0.1,29.3,2.6,42.6,7.2c5.1,1.8,10.1,3.9,14.9,6.3c13.1,6.4,25,15,35.1,25.2c10.1,10.2,18.6,22.1,25,34.9
	c2.4,4.9,4.5,9.9,6.3,15.1c4.6,13.3,7.1,27.6,7.1,42.5L387.2,256L387.2,256z"/>
</svg>
